<?xml version="1.0" encoding="UTF-8"?>
<!DOCTYPE svg PUBLIC "-//W3C//DTD SVG 1.1//EN" "http://www.w3.org/Graphics/SVG/1.1/DTD/svg11.dtd">
<!-- Creator: CorelDRAW X7 -->
<svg xmlns="http://www.w3.org/2000/svg" xml:space="preserve" width="0.379756in" height="0.454689in" version="1.1" style="shape-rendering:geometricPrecision; text-rendering:geometricPrecision; image-rendering:optimizeQuality; fill-rule:evenodd; clip-rule:evenodd"
viewBox="0 0 67 80"
 xmlns:xlink="http://www.w3.org/1999/xlink">
 <defs>
  <style type="text/css">
   <![CDATA[
    .fil0 {fill:#FEFEFE;fill-rule:nonzero}
    .fil1 {fill:black;fill-rule:nonzero}
   ]]>
  </style>
 </defs>
 <g id="Слой_x0020_1">
  <metadata id="CorelCorpID_0Corel-Layer"/>
  <g id="_1487142077024">
   <path class="fil0" d="M29 0c-13,0 -29,10 -29,35 0,30 19,45 37,45 16,0 30,-10 30,-38 0,-24 -14,-42 -38,-42z"/>
   <path class="fil1" d="M29 4c-15,0 -24,11 -25,30 2,-1 5,-1 7,0 -1,2 -2,4 -4,5 1,4 2,9 6,18 -1,-9 1,-14 2,-18 -2,-1 -3,-3 -4,-5 3,-1 5,-1 7,0 -1,-21 2,-27 11,-27 8,0 11,6 11,27 2,-1 3,-1 6,0 0,2 -2,4 -4,5 2,4 3,9 2,18 4,-9 5,-14 6,-18 -1,-1 -3,-3 -3,-5 2,-1 4,-1 6,0 -1,-19 -9,-30 -24,-30zm0 -4c-13,0 -29,10 -29,35 0,30 19,45 37,45 16,0 30,-10 30,-38 0,-24 -14,-42 -38,-42zm-18 34c-1,-4 -2,-6 -4,-7 2,-6 4,-9 7,-14 -1,5 -1,10 1,14 -1,1 -3,3 -4,7l0 0zm20 1c0,-14 1,-16 3,-16 1,0 1,2 1,16 0,18 -1,23 -2,23 -1,0 -2,-3 -2,-23zm15 -1c-1,-4 -2,-6 -4,-7 2,-4 2,-9 1,-14 4,5 6,8 7,14 -1,1 -3,3 -3,7l-1 0zm-17 35c-19,0 -27,-13 -27,-34 0,-20 11,-33 27,-33 15,0 26,13 26,33 0,21 -8,34 -26,34zm-9 -34c0,19 1,27 9,27 7,0 9,-8 9,-27 0,-21 -2,-27 -9,-27 -8,0 -9,6 -9,27z"/>
  </g>
 </g>
</svg>
