<?xml version="1.0" encoding="UTF-8"?>
<!DOCTYPE svg PUBLIC "-//W3C//DTD SVG 1.1//EN" "http://www.w3.org/Graphics/SVG/1.1/DTD/svg11.dtd">
<!-- Creator: CorelDRAW X7 -->
<svg xmlns="http://www.w3.org/2000/svg" xml:space="preserve" width="0.42628in" height="0.400413in" version="1.1" style="shape-rendering:geometricPrecision; text-rendering:geometricPrecision; image-rendering:optimizeQuality; fill-rule:evenodd; clip-rule:evenodd"
viewBox="0 0 165 155"
 xmlns:xlink="http://www.w3.org/1999/xlink">
 <defs>
  <style type="text/css">
   <![CDATA[
    .fil1 {fill:black;fill-rule:nonzero}
    .fil0 {fill:white;fill-rule:nonzero}
   ]]>
  </style>
 </defs>
 <g id="Слой_x0020_1">
  <metadata id="CorelCorpID_0Corel-Layer"/>
  <g id="_1487141036400">
   <path class="fil0" d="M71 4l0 11 -8 2c-6,0 -8,4 -4,9l17 23 17 -23c4,-5 3,-9 -2,-9l-9 -2 0 -11 55 0 0 11 -10 2c-3,0 -5,3 -8,7l-31 42 36 48c2,3 5,6 8,7l7 1 0 12 -67 0 0 -12 8 -1c6,-1 7,-4 4,-9l-15 -20 -15 21c-4,4 -2,7 3,8l6 1 0 12 -54 0 0 -12 9 -2c4,0 10,-4 14,-10l26 -36 -32 -44c-4,-6 -8,-13 -12,-14l-9 -1 0 -11 66 0z"/>
   <path class="fil1" d="M71 4l0 11 -8 2c-6,0 -8,4 -4,9l17 23 17 -23c4,-5 3,-9 -2,-9l-9 -2 0 -11 55 0 0 11 -10 2c-3,0 -5,3 -8,7l-31 42 36 48c2,3 5,6 8,7l7 1 0 12 -67 0 0 -12 8 -1c6,-1 7,-4 4,-9l-15 -20 -15 21c-4,4 -2,7 3,8l6 1 0 12 -54 0 0 -12 9 -2c4,0 10,-4 14,-10l26 -36 -32 -44c-4,-6 -8,-13 -12,-14l-9 -1 0 -11 66 0zm-61 3l0 5 4 0c8,1 12,9 18,17l26 37c3,-1 7,-1 11,0 0,4 0,7 -2,11 14,11 25,22 35,33 -6,-11 -11,-22 -16,-33 -6,-4 -11,-7 -16,-11 5,-1 8,-1 12,0l30 -41c5,-7 9,-12 14,-12l6 -1 0 -5 -45 0 0 5 6 1c7,0 11,6 6,13l-22 29 -2 0 -21 -29c-5,-7 -2,-12 6,-13l6 -1 0 -5 -56 0zm-10 12l10 1c5,1 7,5 11,10l31 44 -25 34c-3,5 -8,7 -13,9l-10 1 0 19 24 18 137 0 0 -15 -25 -24 -31 -40 22 -29c5,-7 9,-8 17,-9l14 -1 0 -17 -20 -20 -142 0 0 19zm69 47c-4,-5 -10,-9 -18,-14 -1,-8 -6,-19 -11,-28 9,9 18,19 29,28 0,5 0,9 1,14l-1 0z"/>
  </g>
 </g>
</svg>
